<svg xmlns="http://www.w3.org/2000/svg" xmlns:xlink="http://www.w3.org/1999/xlink" version="1.1" x="0px" y="0px"
  width="24" height="24" viewBox="-5 -5 110 110">
  <path
    d="m7.5391 55 6.9492 1.5195c1.0117 0.23047 1.8594 1 2.1406 2.0703 0.78906 3.1094 2.0781 6.1602 3.7109 8.9297 0.51953 0.89062 0.53906 2.0391-0.058594 2.9609l-3.8398 6 7.0781 7.0781 5.9414-3.8008c0.87891-0.60156 2.0508-0.67187 3.0312-0.10156 1.3906 0.82031 2.8398 1.5508 4.3516 2.1719 1.4414 0.60156 2.8984 1.0898 4.3594 1.4805 1.1016 0.19141 2.0312 1.0312 2.2891 2.1914l1.5195 6.9492h10l1.5195-6.9492c0.21875-1.0117 0.98828-1.8594 2.0586-2.1289 3.1016-0.78906 6.1602-2.0781 8.9297-3.7109 0.89062-0.51953 2.0391-0.53906 2.9609 0.058594l6 3.8516 7.0781-7.0781-3.8008-5.9414c-0.60156-0.87891-0.67187-2.0508-0.10156-3.0312 0.82031-1.3906 1.5508-2.8398 2.1719-4.3516 0.60156-1.4414 1.0898-2.8984 1.4805-4.3594 0.19141-1.1016 1.0312-2.0312 2.1914-2.2891l6.9492-1.5195v-10l-6.9492-1.5195c-1.0117-0.23047-1.8594-1-2.1406-2.0703-0.78906-3.1016-2.0781-6.1602-3.7109-8.9297-0.51953-0.89062-0.53906-2.0391 0.058593-2.9609l3.8398-6-7.0781-7.0781-5.9414 3.8008c-0.87891 0.60156-2.0508 0.67187-3.0312 0.10156-1.3906-0.82031-2.8398-1.5508-4.3516-2.1719-1.4414-0.60156-2.8984-1.0898-4.3594-1.4805-1.1016-0.19141-2.0312-1.0312-2.2891-2.1914l-1.5195-6.9492h-10l-1.5195 6.9492c-0.21875 1.0117-0.98828 1.8594-2.0586 2.1289-3.1016 0.78906-6.1602 2.0781-8.9297 3.7109-0.89062 0.51953-2.0391 0.53906-2.9609-0.058594l-6-3.8516-7.0781 7.0781 3.8008 5.9414c0.60156 0.87891 0.67188 2.0508 0.10156 3.0312-0.82031 1.3906-1.5508 2.8398-2.1719 4.3516-0.60156 1.4414-1.0898 2.8984-1.4805 4.3594-0.19141 1.1016-1.0312 2.0312-2.1914 2.2891l-6.9492 1.5195zm42.461-27.391c12.371 0 22.391 10.031 22.391 22.391s-10.031 22.391-22.391 22.391-22.391-10.031-22.391-22.391 10.031-22.391 22.391-22.391z"
    fill-rule="evenodd" />
</svg>